<svg width="65" height="65" viewBox="0 0 65 65" fill="none" xmlns="http://www.w3.org/2000/svg">
<g id="arrow-right-circle">
<path id="Vector" d="M32.5 0.625C26.1957 0.625 20.033 2.49444 14.7912 5.99691C9.5494 9.49938 5.4639 14.4776 3.05135 20.302C0.638811 26.1264 0.00757962 32.5354 1.23748 38.7185C2.46739 44.9016 5.50319 50.5812 9.96099 55.039C14.4188 59.4968 20.0984 62.5326 26.2815 63.7625C32.4647 64.9924 38.8737 64.3612 44.6981 61.9487C50.5224 59.5361 55.5006 55.4506 59.0031 50.2088C62.5056 44.967 64.375 38.8043 64.375 32.5C64.375 24.0462 61.0168 15.9387 55.039 9.96097C49.0613 3.98325 40.9538 0.625 32.5 0.625ZM46.4188 38.1313L38.9016 45.7812C38.4039 46.276 37.7307 46.5537 37.0289 46.5537C36.3272 46.5537 35.6539 46.276 35.1563 45.7812C34.6615 45.2836 34.3838 44.6103 34.3838 43.9086C34.3838 43.2069 34.6615 42.5336 35.1563 42.0359L41.8766 35.1562H18.9C18.1955 35.1562 17.5199 34.8764 17.0218 34.3783C16.5236 33.8801 16.2438 33.2045 16.2438 32.5C16.2438 31.7955 16.5236 31.1199 17.0218 30.6217C17.5199 30.1236 18.1955 29.8438 18.9 29.8438H41.8766L35.1563 23.0969C34.8782 22.8587 34.6524 22.5657 34.4929 22.2362C34.3335 21.9066 34.2439 21.5477 34.2298 21.1819C34.2156 20.816 34.2773 20.4513 34.4108 20.1104C34.5444 19.7695 34.7469 19.4599 35.0058 19.2011C35.2647 18.9422 35.5742 18.7397 35.9151 18.6061C36.256 18.4726 36.6207 18.4109 36.9866 18.4251C37.3524 18.4392 37.7113 18.5288 38.0409 18.6882C38.3704 18.8477 38.6635 19.0735 38.9016 19.3516L46.4188 26.8687C47.911 28.3629 48.7493 30.3883 48.7493 32.5C48.7493 34.6117 47.911 36.6371 46.4188 38.1313Z" fill="#26A39D"/>
</g>
</svg>
