<svg width="50" height="50" viewBox="0 0 50 50" fill="none" xmlns="http://www.w3.org/2000/svg">
<path d="M43.0487 39.1062C43.0487 39.1062 40.6348 41.477 40.0432 42.1721C39.0796 43.2004 37.9442 43.686 36.4558 43.686C36.3127 43.686 36.16 43.686 36.0169 43.6765C33.1832 43.4956 30.5499 42.3911 28.5749 41.4485C23.1747 38.8396 18.4328 35.1357 14.4923 30.4416C11.2388 26.5282 9.06348 22.91 7.62279 19.0252C6.73547 16.6544 6.41108 14.8072 6.55419 13.0647C6.6496 11.9507 7.07895 11.0271 7.87085 10.2368L11.1243 6.99C11.5919 6.55201 12.088 6.31397 12.5746 6.31397C13.1757 6.31397 13.6623 6.67579 13.9676 6.98048C13.9771 6.99 13.9867 6.99952 13.9962 7.00905C14.5782 7.55177 15.1316 8.11354 15.7136 8.7134C16.0094 9.01809 16.3147 9.32278 16.62 9.63699L19.2247 12.2364C20.236 13.2457 20.236 14.1788 19.2247 15.1881C18.948 15.4642 18.6808 15.7403 18.4042 16.0069C17.6027 16.8258 18.2323 16.1975 17.4022 16.9401C17.3831 16.9592 17.3641 16.9687 17.3545 16.9877C16.534 17.8066 16.6866 18.6064 16.8584 19.1491C16.8679 19.1777 16.8775 19.2063 16.887 19.2348C17.5644 20.8725 18.5185 22.415 19.9688 24.2527L19.9783 24.2622C22.6116 27.4995 25.3881 30.0227 28.4507 31.9556C28.8419 32.2032 29.2427 32.4031 29.6243 32.5936C29.9678 32.7649 30.2922 32.9268 30.5689 33.0982C30.607 33.1172 30.6452 33.1458 30.6833 33.1648C31.0077 33.3267 31.3131 33.4029 31.6279 33.4029C32.4198 33.4029 32.916 32.9078 33.0781 32.7459L34.9483 30.8795C35.2727 30.5558 35.7879 30.1654 36.389 30.1654C36.9806 30.1654 37.4672 30.5368 37.7629 30.8605C37.7725 30.87 37.7725 30.87 37.782 30.8795L43.0391 36.1259C44.0218 37.0971 43.0487 39.1062 43.0487 39.1062Z" stroke="#053BA8" stroke-width="5" stroke-linecap="round" stroke-linejoin="round"/>
</svg>
