<svg width="56" height="56" viewBox="0 0 56 56" fill="none" xmlns="http://www.w3.org/2000/svg">
<path d="M36.5844 36.6217C37.8943 37.0583 39.3101 36.3504 39.7467 35.0406C40.1833 33.7307 39.4754 32.3149 38.1656 31.8783L36.5844 36.6217ZM28 31.125H25.5C25.5 32.2011 26.1886 33.1564 27.2094 33.4967L28 31.125ZM30.5 18.058C30.5 16.6773 29.3807 15.558 28 15.558C26.6193 15.558 25.5 16.6773 25.5 18.058H30.5ZM38.1656 31.8783L28.7906 28.7533L27.2094 33.4967L36.5844 36.6217L38.1656 31.8783ZM30.5 31.125V18.058H25.5V31.125H30.5ZM50.5 28C50.5 40.4264 40.4264 50.5 28 50.5V55.5C43.1878 55.5 55.5 43.1878 55.5 28H50.5ZM28 50.5C15.5736 50.5 5.5 40.4264 5.5 28H0.5C0.5 43.1878 12.8122 55.5 28 55.5V50.5ZM5.5 28C5.5 15.5736 15.5736 5.5 28 5.5V0.5C12.8122 0.5 0.5 12.8122 0.5 28H5.5ZM28 5.5C40.4264 5.5 50.5 15.5736 50.5 28H55.5C55.5 12.8122 43.1878 0.5 28 0.5V5.5Z" fill="#053BA8"/>
</svg>
