<svg width="60" height="60" viewBox="0 0 60 60" fill="none" xmlns="http://www.w3.org/2000/svg">
<circle cx="30" cy="30" r="30" fill="url(#paint0_linear_520_8)"/>
<g clip-path="url(#clip0_520_8)">
<path d="M41.202 18.652C39.7349 17.1714 37.9879 15.9975 36.0626 15.1988C34.1373 14.4002 32.0724 13.9927 29.988 14C21.254 14 14.136 21.116 14.128 29.852C14.128 32.65 14.86 35.372 16.242 37.782L14 46L22.408 43.796C24.734 45.0619 27.3399 45.7254 29.988 45.726H29.996C38.732 45.726 45.848 38.61 45.856 29.866C45.858 27.7821 45.4476 25.7184 44.6485 23.7938C43.8494 21.8692 42.6774 20.1217 41.2 18.652H41.202ZM29.988 43.042C27.626 43.0428 25.3074 42.4072 23.276 41.202L22.796 40.914L17.808 42.222L19.14 37.356L18.828 36.854C17.5076 34.7547 16.8093 32.3241 16.814 29.844C16.814 22.592 22.728 16.676 29.996 16.676C31.7275 16.6729 33.4425 17.0126 35.042 17.6754C36.6416 18.3383 38.0942 19.3112 39.316 20.538C40.5421 21.7601 41.514 23.2129 42.1759 24.8125C42.8377 26.4121 43.1762 28.1269 43.172 29.858C43.164 37.136 37.25 43.042 29.988 43.042V43.042ZM37.218 33.174C36.824 32.976 34.878 32.018 34.512 31.882C34.148 31.752 33.882 31.684 33.622 32.08C33.356 32.474 32.596 33.372 32.368 33.63C32.14 33.896 31.904 33.926 31.508 33.73C31.114 33.53 29.836 33.114 28.324 31.76C27.144 30.71 26.354 29.41 26.118 29.016C25.89 28.62 26.096 28.408 26.294 28.21C26.468 28.034 26.688 27.746 26.886 27.518C27.086 27.29 27.152 27.122 27.282 26.858C27.412 26.59 27.35 26.362 27.252 26.164C27.152 25.966 26.362 24.012 26.028 23.224C25.708 22.446 25.382 22.554 25.138 22.544C24.91 22.53 24.644 22.53 24.378 22.53C24.1771 22.535 23.9795 22.5815 23.7974 22.6665C23.6153 22.7515 23.4528 22.8732 23.32 23.024C22.956 23.42 21.938 24.378 21.938 26.332C21.938 28.286 23.358 30.164 23.558 30.43C23.754 30.696 26.346 34.694 30.324 36.414C31.264 36.824 32.004 37.066 32.582 37.25C33.532 37.554 34.39 37.508 35.074 37.41C35.834 37.294 37.416 36.45 37.75 35.524C38.078 34.596 38.078 33.804 37.978 33.638C37.88 33.47 37.614 33.372 37.218 33.174V33.174Z" fill="white"/>
</g>
<defs>
<linearGradient id="paint0_linear_520_8" x1="0" y1="0" x2="60" y2="60" gradientUnits="userSpaceOnUse">
<stop stop-color="#4FDD5F"/>
<stop offset="1" stop-color="#43E0A8"/>
</linearGradient>
<clipPath id="clip0_520_8">
<rect width="32" height="32" fill="white" transform="translate(14 14)"/>
</clipPath>
</defs>
</svg>
